<svg width="32" height="32" xmlns="http://www.w3.org/2000/svg">

 <g>
  <title>background</title>
  <rect fill="none" id="canvas_background" height="402" width="582" y="-1" x="-1"/>
 </g>
 <g>
  <title>Layer 1</title>
  <path id="svg_1" fill="#ffffff" d="m1,10l30,0c0.552,0 1,-0.448 1,-1c0,-0.552 -0.448,-1 -1,-1l-30,0c-0.552,0 -1,0.448 -1,1c0,0.552 0.448,1 1,1z"/>
  <path id="svg_2" fill="#ffffff" d="m31,15l-30,0c-0.552,0 -1,0.448 -1,1c0,0.552 0.448,1 1,1l30,0c0.552,0 1,-0.448 1,-1c0,-0.552 -0.448,-1 -1,-1z"/>
  <path id="svg_3" fill="#ffffff" d="m31,22l-20,0c-0.552,0 -1,0.448 -1,1s0.448,1 1,1l20,0c0.552,0 1,-0.448 1,-1s-0.448,-1 -1,-1z"/>
 </g>
</svg>